<svg height="1102" width="720" xmlns="http://www.w3.org/2000/svg">
<rect height="1102" fill="#555" width="720"></rect>
<text fill="#7f7" font-family="Courier New" font-size="12" xml:space="preserve">
<tspan x="10" y="26">3 megabytes installed</tspan>
<tspan x="10" y="42"></tspan>
<tspan x="10" y="58">node_modules</tspan>
<tspan x="10" y="74">└─┬ npm-run-all@4.0.2 </tspan>
<tspan x="10" y="90">  ├─┬ chalk@1.1.3 </tspan>
<tspan x="10" y="106">  │ ├── ansi-styles@2.2.1 </tspan>
<tspan x="10" y="122">  │ ├── escape-string-regexp@1.0.5 </tspan>
<tspan x="10" y="138">  │ ├─┬ has-ansi@2.0.0 </tspan>
<tspan x="10" y="154">  │ │ └── ansi-regex@2.1.1 </tspan>
<tspan x="10" y="170">  │ ├── strip-ansi@3.0.1 </tspan>
<tspan x="10" y="186">  │ └── supports-color@2.0.0 </tspan>
<tspan x="10" y="202">  ├─┬ cross-spawn@5.1.0 </tspan>
<tspan x="10" y="218">  │ ├─┬ lru-cache@4.0.2 </tspan>
<tspan x="10" y="234">  │ │ ├── pseudomap@1.0.2 </tspan>
<tspan x="10" y="250">  │ │ └── yallist@2.1.2 </tspan>
<tspan x="10" y="266">  │ ├─┬ shebang-command@1.2.0 </tspan>
<tspan x="10" y="282">  │ │ └── shebang-regex@1.0.0 </tspan>
<tspan x="10" y="298">  │ └─┬ which@1.2.14 </tspan>
<tspan x="10" y="314">  │   └── isexe@2.0.0 </tspan>
<tspan x="10" y="330">  ├─┬ minimatch@3.0.3 </tspan>
<tspan x="10" y="346">  │ └─┬ brace-expansion@1.1.7 </tspan>
<tspan x="10" y="362">  │   ├── balanced-match@0.4.2 </tspan>
<tspan x="10" y="378">  │   └── concat-map@0.0.1 </tspan>
<tspan x="10" y="394">  ├─┬ ps-tree@1.1.0 </tspan>
<tspan x="10" y="410">  │ └─┬ event-stream@3.3.4 </tspan>
<tspan x="10" y="426">  │   ├── duplexer@0.1.1 </tspan>
<tspan x="10" y="442">  │   ├── from@0.1.7 </tspan>
<tspan x="10" y="458">  │   ├── map-stream@0.1.0 </tspan>
<tspan x="10" y="474">  │   ├── pause-stream@0.0.11 </tspan>
<tspan x="10" y="490">  │   ├── split@0.3.3 </tspan>
<tspan x="10" y="506">  │   ├── stream-combiner@0.0.4 </tspan>
<tspan x="10" y="522">  │   └── through@2.3.8 </tspan>
<tspan x="10" y="538">  ├─┬ read-pkg@2.0.0 </tspan>
<tspan x="10" y="554">  │ ├─┬ load-json-file@2.0.0 </tspan>
<tspan x="10" y="570">  │ │ ├── graceful-fs@4.1.11 </tspan>
<tspan x="10" y="586">  │ │ ├─┬ parse-json@2.2.0 </tspan>
<tspan x="10" y="602">  │ │ │ └─┬ error-ex@1.3.1 </tspan>
<tspan x="10" y="618">  │ │ │   └── is-arrayish@0.2.1 </tspan>
<tspan x="10" y="634">  │ │ ├── pify@2.3.0 </tspan>
<tspan x="10" y="650">  │ │ └── strip-bom@3.0.0 </tspan>
<tspan x="10" y="666">  │ ├─┬ normalize-package-data@2.3.6 </tspan>
<tspan x="10" y="682">  │ │ ├── hosted-git-info@2.4.1 </tspan>
<tspan x="10" y="698">  │ │ ├─┬ is-builtin-module@1.0.0 </tspan>
<tspan x="10" y="714">  │ │ │ └── builtin-modules@1.1.1 </tspan>
<tspan x="10" y="730">  │ │ ├── semver@5.3.0 </tspan>
<tspan x="10" y="746">  │ │ └─┬ validate-npm-package-license@3.0.1 </tspan>
<tspan x="10" y="762">  │ │   ├─┬ spdx-correct@1.0.2 </tspan>
<tspan x="10" y="778">  │ │   │ └── spdx-license-ids@1.2.2 </tspan>
<tspan x="10" y="794">  │ │   └── spdx-expression-parse@1.0.4 </tspan>
<tspan x="10" y="810">  │ └── path-type@2.0.0 </tspan>
<tspan x="10" y="826">  ├─┬ shell-quote@1.6.1 </tspan>
<tspan x="10" y="842">  │ ├── array-filter@0.0.1 </tspan>
<tspan x="10" y="858">  │ ├── array-map@0.0.0 </tspan>
<tspan x="10" y="874">  │ ├── array-reduce@0.0.0 </tspan>
<tspan x="10" y="890">  │ └── jsonify@0.0.0 </tspan>
<tspan x="10" y="906">  └─┬ string.prototype.padend@3.0.0 </tspan>
<tspan x="10" y="922">    ├─┬ define-properties@1.1.2 </tspan>
<tspan x="10" y="938">    │ ├── foreach@2.0.5 </tspan>
<tspan x="10" y="954">    │ └── object-keys@1.0.11 </tspan>
<tspan x="10" y="970">    ├─┬ es-abstract@1.7.0 </tspan>
<tspan x="10" y="986">    │ ├─┬ es-to-primitive@1.1.1 </tspan>
<tspan x="10" y="1002">    │ │ ├── is-date-object@1.0.1 </tspan>
<tspan x="10" y="1018">    │ │ └── is-symbol@1.0.1 </tspan>
<tspan x="10" y="1034">    │ ├── is-callable@1.1.3 </tspan>
<tspan x="10" y="1050">    │ └─┬ is-regex@1.0.4 </tspan>
<tspan x="10" y="1066">    │   └── has@1.0.1 </tspan>
<tspan x="10" y="1082">    └── function-bind@1.1.0</tspan>
</text>
</svg>
